<?xml version="1.0" encoding="UTF-8" standalone="no"?>
<!DOCTYPE svg PUBLIC "-//W3C//DTD SVG 1.1//EN"
 "http://www.w3.org/Graphics/SVG/1.1/DTD/svg11.dtd">
<!-- Generated by graphviz version 12.2.1 (20241206.2353)
 -->
<!-- Title: RNAseqPipeline Pages: 1 -->
<svg width="1390pt" height="844pt"
 viewBox="0.00 0.00 1390.00 843.50" xmlns="http://www.w3.org/2000/svg" xmlns:xlink="http://www.w3.org/1999/xlink">
<g id="graph0" class="graph" transform="scale(1 1) rotate(0) translate(4 839.5)">
<title>RNAseqPipeline</title>
<polygon fill="white" stroke="none" points="-4,4 -4,-839.5 1386,-839.5 1386,4 -4,4"/>
<g id="clust1" class="cluster">
<title>cluster_input</title>
<polygon fill="lightgrey" stroke="lightgrey" points="172,-751 172,-827.5 450,-827.5 450,-751 172,-751"/>
<text text-anchor="middle" x="311" y="-810.2" font-family="Times,serif" font-size="14.00">Input</text>
</g>
<g id="clust2" class="cluster">
<title>cluster_preprocessing</title>
<polygon fill="lightgrey" stroke="lightgrey" points="8,-446 8,-743 282,-743 282,-446 8,-446"/>
<text text-anchor="middle" x="145" y="-725.7" font-family="Times,serif" font-size="14.00">Preprocessing</text>
</g>
<g id="clust3" class="cluster">
<title>cluster_alignment</title>
<polygon fill="lightgrey" stroke="lightgrey" points="322,-329 322,-594.5 454,-594.5 454,-329 322,-329"/>
<text text-anchor="middle" x="388" y="-577.2" font-family="Times,serif" font-size="14.00">Alignment</text>
</g>
<g id="clust4" class="cluster">
<title>cluster_analysis</title>
<polygon fill="lightgrey" stroke="lightgrey" points="472,-92.5 472,-438 1374,-438 1374,-92.5 472,-92.5"/>
<text text-anchor="middle" x="923" y="-420.7" font-family="Times,serif" font-size="14.00">Analysis</text>
</g>
<g id="clust5" class="cluster">
<title>cluster_varcall</title>
<polygon fill="lightgrey" stroke="lightgrey" points="480,-100.5 480,-405.5 660,-405.5 660,-100.5 480,-100.5"/>
<text text-anchor="middle" x="570" y="-388.2" font-family="Times,serif" font-size="14.00">Optional Variant Calling</text>
</g>
<g id="clust6" class="cluster">
<title>cluster_outrider</title>
<polygon fill="lightgrey" stroke="lightgrey" points="668,-100.5 668,-321 852,-321 852,-100.5 668,-100.5"/>
<text text-anchor="middle" x="760" y="-303.7" font-family="Times,serif" font-size="14.00">Optional OUTRIDER</text>
</g>
<g id="clust7" class="cluster">
<title>cluster_output</title>
<polygon fill="lightgrey" stroke="lightgrey" points="996,-8 996,-84.5 1104,-84.5 1104,-8 996,-8"/>
<text text-anchor="middle" x="1050" y="-67.2" font-family="Times,serif" font-size="14.00">Output</text>
</g>
<!-- FASTQ -->
<g id="node1" class="node">
<title>FASTQ</title>
<polygon fill="lightpink" stroke="black" points="273.62,-795 180.38,-795 180.38,-759 273.62,-759 273.62,-795"/>
<text text-anchor="middle" x="227" y="-771.58" font-family="Arial" font-size="14.00">FASTQ Files</text>
</g>
<!-- FASTP -->
<g id="node3" class="node">
<title>FASTP</title>
<polygon fill="lightblue" stroke="black" points="264.25,-710.5 189.75,-710.5 189.75,-674.5 264.25,-674.5 264.25,-710.5"/>
<text text-anchor="middle" x="227" y="-687.08" font-family="Arial" font-size="14.00">Fastp QC</text>
</g>
<!-- FASTQ&#45;&gt;FASTP -->
<g id="edge1" class="edge">
<title>FASTQ&#45;&gt;FASTP</title>
<path fill="none" stroke="black" d="M227,-758.66C227,-758.66 227,-722.31 227,-722.31"/>
<polygon fill="black" stroke="black" points="230.5,-722.31 227,-712.31 223.5,-722.31 230.5,-722.31"/>
</g>
<!-- REFS -->
<g id="node2" class="node">
<title>REFS</title>
<polygon fill="lightpink" stroke="black" points="442.25,-795 331.75,-795 331.75,-759 442.25,-759 442.25,-795"/>
<text text-anchor="middle" x="387" y="-771.58" font-family="Arial" font-size="14.00">Reference Files</text>
</g>
<!-- STAR -->
<g id="node8" class="node">
<title>STAR</title>
<polygon fill="lightgreen" stroke="black" points="445.5,-562 330.5,-562 330.5,-526 445.5,-526 445.5,-562"/>
<text text-anchor="middle" x="388" y="-538.58" font-family="Arial" font-size="14.00">STAR Alignment</text>
</g>
<!-- REFS&#45;&gt;STAR -->
<g id="edge2" class="edge">
<title>REFS&#45;&gt;STAR</title>
<path fill="none" stroke="black" d="M405.42,-758.72C405.42,-758.72 405.42,-573.71 405.42,-573.71"/>
<polygon fill="black" stroke="black" points="408.92,-573.71 405.42,-563.71 401.92,-573.71 408.92,-573.71"/>
</g>
<!-- FILTER -->
<g id="node4" class="node">
<title>FILTER</title>
<polygon fill="lightblue" stroke="black" points="274.38,-638.5 179.62,-638.5 179.62,-602.5 274.38,-602.5 274.38,-638.5"/>
<text text-anchor="middle" x="227" y="-615.08" font-family="Arial" font-size="14.00">Filter FASTQ</text>
</g>
<!-- FASTP&#45;&gt;FILTER -->
<g id="edge3" class="edge">
<title>FASTP&#45;&gt;FILTER</title>
<path fill="none" stroke="black" d="M227,-674.33C227,-674.33 227,-650.43 227,-650.43"/>
<polygon fill="black" stroke="black" points="230.5,-650.43 227,-640.43 223.5,-650.43 230.5,-650.43"/>
</g>
<!-- CONTAM -->
<g id="node5" class="node">
<title>CONTAM</title>
<polygon fill="lightblue" stroke="black" points="272.88,-562 127.12,-562 127.12,-526 272.88,-526 272.88,-562"/>
<text text-anchor="middle" x="200" y="-538.58" font-family="Arial" font-size="14.00">Contamination Check</text>
</g>
<!-- FILTER&#45;&gt;CONTAM -->
<g id="edge4" class="edge">
<title>FILTER&#45;&gt;CONTAM</title>
<path fill="none" stroke="black" d="M226.25,-602.37C226.25,-602.37 226.25,-573.78 226.25,-573.78"/>
<polygon fill="black" stroke="black" points="229.75,-573.78 226.25,-563.78 222.75,-573.78 229.75,-573.78"/>
</g>
<!-- FILTER&#45;&gt;STAR -->
<g id="edge7" class="edge">
<title>FILTER&#45;&gt;STAR</title>
<path fill="none" stroke="black" d="M274.54,-621C315.67,-621 368.58,-621 368.58,-621 368.58,-621 368.58,-573.76 368.58,-573.76"/>
<polygon fill="black" stroke="black" points="372.08,-573.76 368.58,-563.76 365.08,-573.76 372.08,-573.76"/>
</g>
<!-- RRNA -->
<g id="node6" class="node">
<title>RRNA</title>
<polygon fill="lightblue" stroke="black" points="98.38,-490 15.62,-490 15.62,-454 98.38,-454 98.38,-490"/>
<text text-anchor="middle" x="57" y="-466.57" font-family="Arial" font-size="14.00">BWA rRNA</text>
</g>
<!-- CONTAM&#45;&gt;RRNA -->
<g id="edge5" class="edge">
<title>CONTAM&#45;&gt;RRNA</title>
<path fill="none" stroke="black" d="M141.56,-525.83C141.56,-504.5 141.56,-472 141.56,-472 141.56,-472 110.3,-472 110.3,-472"/>
<polygon fill="black" stroke="black" points="110.3,-468.5 100.3,-472 110.3,-475.5 110.3,-468.5"/>
</g>
<!-- GLOBIN -->
<g id="node7" class="node">
<title>GLOBIN</title>
<polygon fill="lightblue" stroke="black" points="274,-490 156,-490 156,-454 274,-454 274,-490"/>
<text text-anchor="middle" x="215" y="-466.57" font-family="Arial" font-size="14.00">BWA GlobinRNA</text>
</g>
<!-- CONTAM&#45;&gt;GLOBIN -->
<g id="edge6" class="edge">
<title>CONTAM&#45;&gt;GLOBIN</title>
<path fill="none" stroke="black" d="M214.44,-525.83C214.44,-525.83 214.44,-501.93 214.44,-501.93"/>
<polygon fill="black" stroke="black" points="217.94,-501.93 214.44,-491.93 210.94,-501.93 217.94,-501.93"/>
</g>
<!-- MARKDUP -->
<g id="node9" class="node">
<title>MARKDUP</title>
<polygon fill="lightgreen" stroke="black" points="445.75,-490 332.25,-490 332.25,-454 445.75,-454 445.75,-490"/>
<text text-anchor="middle" x="389" y="-466.57" font-family="Arial" font-size="14.00">Mark Duplicates</text>
</g>
<!-- STAR&#45;&gt;MARKDUP -->
<g id="edge8" class="edge">
<title>STAR&#45;&gt;MARKDUP</title>
<path fill="none" stroke="black" d="M388.88,-525.83C388.88,-525.83 388.88,-501.93 388.88,-501.93"/>
<polygon fill="black" stroke="black" points="392.38,-501.93 388.88,-491.93 385.38,-501.93 392.38,-501.93"/>
</g>
<!-- CRAM -->
<g id="node10" class="node">
<title>CRAM</title>
<polygon fill="lightgreen" stroke="black" points="430.38,-373 329.62,-373 329.62,-337 430.38,-337 430.38,-373"/>
<text text-anchor="middle" x="380" y="-349.57" font-family="Arial" font-size="14.00">Create CRAM</text>
</g>
<!-- MARKDUP&#45;&gt;CRAM -->
<g id="edge9" class="edge">
<title>MARKDUP&#45;&gt;CRAM</title>
<path fill="none" stroke="black" d="M381.31,-453.72C381.31,-453.72 381.31,-384.67 381.31,-384.67"/>
<polygon fill="black" stroke="black" points="384.81,-384.67 381.31,-374.67 377.81,-384.67 384.81,-384.67"/>
</g>
<!-- FEATURECOUNTS -->
<g id="node11" class="node">
<title>FEATURECOUNTS</title>
<polygon fill="lightcoral" stroke="black" points="815.62,-373 710.38,-373 710.38,-337 815.62,-337 815.62,-373"/>
<text text-anchor="middle" x="763" y="-349.57" font-family="Arial" font-size="14.00">FeatureCounts</text>
</g>
<!-- MARKDUP&#45;&gt;FEATURECOUNTS -->
<g id="edge10" class="edge">
<title>MARKDUP&#45;&gt;FEATURECOUNTS</title>
<path fill="none" stroke="black" d="M446.21,-460C550.98,-460 763,-460 763,-460 763,-460 763,-384.8 763,-384.8"/>
<polygon fill="black" stroke="black" points="766.5,-384.8 763,-374.8 759.5,-384.8 766.5,-384.8"/>
</g>
<!-- RNASEQC -->
<g id="node12" class="node">
<title>RNASEQC</title>
<polygon fill="lightcoral" stroke="black" points="960.25,-373 873.75,-373 873.75,-337 960.25,-337 960.25,-373"/>
<text text-anchor="middle" x="917" y="-349.57" font-family="Arial" font-size="14.00">RNA&#45;SeQC</text>
</g>
<!-- MARKDUP&#45;&gt;RNASEQC -->
<g id="edge11" class="edge">
<title>MARKDUP&#45;&gt;RNASEQC</title>
<path fill="none" stroke="black" d="M446.01,-466C582.54,-466 917,-466 917,-466 917,-466 917,-384.84 917,-384.84"/>
<polygon fill="black" stroke="black" points="920.5,-384.84 917,-374.84 913.5,-384.84 920.5,-384.84"/>
</g>
<!-- IRFINDER -->
<g id="node13" class="node">
<title>IRFINDER</title>
<polygon fill="lightcoral" stroke="black" points="1085.88,-373 1018.12,-373 1018.12,-337 1085.88,-337 1085.88,-373"/>
<text text-anchor="middle" x="1052" y="-349.57" font-family="Arial" font-size="14.00">IRFinder</text>
</g>
<!-- MARKDUP&#45;&gt;IRFINDER -->
<g id="edge12" class="edge">
<title>MARKDUP&#45;&gt;IRFINDER</title>
<path fill="none" stroke="black" d="M446.1,-472C606.92,-472 1052,-472 1052,-472 1052,-472 1052,-384.79 1052,-384.79"/>
<polygon fill="black" stroke="black" points="1055.5,-384.79 1052,-374.79 1048.5,-384.79 1055.5,-384.79"/>
</g>
<!-- BAM2SJ -->
<g id="node14" class="node">
<title>BAM2SJ</title>
<polygon fill="lightcoral" stroke="black" points="1213.62,-373 1144.38,-373 1144.38,-337 1213.62,-337 1213.62,-373"/>
<text text-anchor="middle" x="1179" y="-349.57" font-family="Arial" font-size="14.00">BAM2SJ</text>
</g>
<!-- MARKDUP&#45;&gt;BAM2SJ -->
<g id="edge13" class="edge">
<title>MARKDUP&#45;&gt;BAM2SJ</title>
<path fill="none" stroke="black" d="M446.13,-478C627.6,-478 1179,-478 1179,-478 1179,-478 1179,-384.93 1179,-384.93"/>
<polygon fill="black" stroke="black" points="1182.5,-384.93 1179,-374.93 1175.5,-384.93 1182.5,-384.93"/>
</g>
<!-- MOSDEPTH -->
<g id="node15" class="node">
<title>MOSDEPTH</title>
<polygon fill="lightcoral" stroke="black" points="1366,-373 1272,-373 1272,-337 1366,-337 1366,-373"/>
<text text-anchor="middle" x="1319" y="-349.57" font-family="Arial" font-size="14.00">MOSDEPTH</text>
</g>
<!-- MARKDUP&#45;&gt;MOSDEPTH -->
<g id="edge14" class="edge">
<title>MARKDUP&#45;&gt;MOSDEPTH</title>
<path fill="none" stroke="black" d="M446.12,-484C648.46,-484 1319,-484 1319,-484 1319,-484 1319,-385 1319,-385"/>
<polygon fill="black" stroke="black" points="1322.5,-385 1319,-375 1315.5,-385 1322.5,-385"/>
</g>
<!-- SPLITNCIGAR -->
<g id="node16" class="node">
<title>SPLITNCIGAR</title>
<polygon fill="lightyellow" stroke="black" points="651.88,-373 488.12,-373 488.12,-337 651.88,-337 651.88,-373"/>
<text text-anchor="middle" x="570" y="-349.57" font-family="Arial" font-size="14.00">GATK SplitNCigarReads</text>
</g>
<!-- MARKDUP&#45;&gt;SPLITNCIGAR -->
<g id="edge15" class="edge">
<title>MARKDUP&#45;&gt;SPLITNCIGAR</title>
<path fill="none" stroke="black" d="M438.06,-453.72C438.06,-420.81 438.06,-355 438.06,-355 438.06,-355 476.43,-355 476.43,-355"/>
<polygon fill="black" stroke="black" points="476.43,-358.5 486.43,-355 476.43,-351.5 476.43,-358.5"/>
</g>
<!-- MASTER -->
<g id="node20" class="node">
<title>MASTER</title>
<polygon fill="lightyellow" stroke="black" points="844.12,-288.5 675.88,-288.5 675.88,-252.5 844.12,-252.5 844.12,-288.5"/>
<text text-anchor="middle" x="760" y="-265.07" font-family="Arial" font-size="14.00">Download Master Counts</text>
</g>
<!-- FEATURECOUNTS&#45;&gt;MASTER -->
<g id="edge19" class="edge">
<title>FEATURECOUNTS&#45;&gt;MASTER</title>
<path fill="none" stroke="black" d="M763,-336.66C763,-336.66 763,-300.31 763,-300.31"/>
<polygon fill="black" stroke="black" points="766.5,-300.31 763,-290.31 759.5,-300.31 766.5,-300.31"/>
</g>
<!-- UPLOAD -->
<g id="node23" class="node">
<title>UPLOAD</title>
<polygon fill="lavender" stroke="black" points="1095.5,-52 1004.5,-52 1004.5,-16 1095.5,-16 1095.5,-52"/>
<text text-anchor="middle" x="1050" y="-28.57" font-family="Arial" font-size="14.00">Upload Files</text>
</g>
<!-- FEATURECOUNTS&#45;&gt;UPLOAD -->
<g id="edge22" class="edge">
<title>FEATURECOUNTS&#45;&gt;UPLOAD</title>
<path fill="none" stroke="black" d="M816.02,-355C838.21,-355 858.94,-355 858.94,-355 858.94,-355 858.94,-40 858.94,-40 858.94,-40 992.72,-40 992.72,-40"/>
<polygon fill="black" stroke="black" points="992.72,-43.5 1002.72,-40 992.72,-36.5 992.72,-43.5"/>
</g>
<!-- RNASEQC&#45;&gt;UPLOAD -->
<g id="edge23" class="edge">
<title>RNASEQC&#45;&gt;UPLOAD</title>
<path fill="none" stroke="black" d="M960.49,-355C986.12,-355 1013.58,-355 1013.58,-355 1013.58,-355 1013.58,-63.69 1013.58,-63.69"/>
<polygon fill="black" stroke="black" points="1017.08,-63.69 1013.58,-53.69 1010.08,-63.69 1017.08,-63.69"/>
</g>
<!-- IRFINDER&#45;&gt;UPLOAD -->
<g id="edge24" class="edge">
<title>IRFINDER&#45;&gt;UPLOAD</title>
<path fill="none" stroke="black" d="M1052,-336.82C1052,-336.82 1052,-63.89 1052,-63.89"/>
<polygon fill="black" stroke="black" points="1055.5,-63.89 1052,-53.89 1048.5,-63.89 1055.5,-63.89"/>
</g>
<!-- BAM2SJ&#45;&gt;UPLOAD -->
<g id="edge25" class="edge">
<title>BAM2SJ&#45;&gt;UPLOAD</title>
<path fill="none" stroke="black" d="M1144.1,-355C1119.41,-355 1090.69,-355 1090.69,-355 1090.69,-355 1090.69,-63.69 1090.69,-63.69"/>
<polygon fill="black" stroke="black" points="1094.19,-63.69 1090.69,-53.69 1087.19,-63.69 1094.19,-63.69"/>
</g>
<!-- MOSDEPTH&#45;&gt;UPLOAD -->
<g id="edge26" class="edge">
<title>MOSDEPTH&#45;&gt;UPLOAD</title>
<path fill="none" stroke="black" d="M1319,-336.82C1319,-268.92 1319,-34 1319,-34 1319,-34 1107.45,-34 1107.45,-34"/>
<polygon fill="black" stroke="black" points="1107.45,-30.5 1097.45,-34 1107.45,-37.5 1107.45,-30.5"/>
</g>
<!-- BQSR -->
<g id="node17" class="node">
<title>BQSR</title>
<polygon fill="lightyellow" stroke="black" points="617.62,-288.5 488.38,-288.5 488.38,-252.5 617.62,-252.5 617.62,-288.5"/>
<text text-anchor="middle" x="553" y="-265.07" font-family="Arial" font-size="14.00">Base Recalibration</text>
</g>
<!-- SPLITNCIGAR&#45;&gt;BQSR -->
<g id="edge16" class="edge">
<title>SPLITNCIGAR&#45;&gt;BQSR</title>
<path fill="none" stroke="black" d="M553,-336.66C553,-336.66 553,-300.31 553,-300.31"/>
<polygon fill="black" stroke="black" points="556.5,-300.31 553,-290.31 549.5,-300.31 556.5,-300.31"/>
</g>
<!-- APPLYBQSR -->
<g id="node18" class="node">
<title>APPLYBQSR</title>
<polygon fill="lightyellow" stroke="black" points="617.25,-216.5 524.75,-216.5 524.75,-180.5 617.25,-180.5 617.25,-216.5"/>
<text text-anchor="middle" x="571" y="-193.07" font-family="Arial" font-size="14.00">Apply BQSR</text>
</g>
<!-- BQSR&#45;&gt;APPLYBQSR -->
<g id="edge17" class="edge">
<title>BQSR&#45;&gt;APPLYBQSR</title>
<path fill="none" stroke="black" d="M571,-252.33C571,-252.33 571,-228.43 571,-228.43"/>
<polygon fill="black" stroke="black" points="574.5,-228.43 571,-218.43 567.5,-228.43 574.5,-228.43"/>
</g>
<!-- HAPLOTYPE -->
<g id="node19" class="node">
<title>HAPLOTYPE</title>
<polygon fill="lightyellow" stroke="black" points="645,-144.5 533,-144.5 533,-108.5 645,-108.5 645,-144.5"/>
<text text-anchor="middle" x="589" y="-121.08" font-family="Arial" font-size="14.00">HaplotypeCaller</text>
</g>
<!-- APPLYBQSR&#45;&gt;HAPLOTYPE -->
<g id="edge18" class="edge">
<title>APPLYBQSR&#45;&gt;HAPLOTYPE</title>
<path fill="none" stroke="black" d="M575.12,-180.33C575.12,-180.33 575.12,-156.43 575.12,-156.43"/>
<polygon fill="black" stroke="black" points="578.63,-156.43 575.13,-146.43 571.63,-156.43 578.63,-156.43"/>
</g>
<!-- HAPLOTYPE&#45;&gt;UPLOAD -->
<g id="edge27" class="edge">
<title>HAPLOTYPE&#45;&gt;UPLOAD</title>
<path fill="none" stroke="black" d="M589,-108.43C589,-80 589,-28 589,-28 589,-28 992.6,-28 992.6,-28"/>
<polygon fill="black" stroke="black" points="992.6,-31.5 1002.6,-28 992.6,-24.5 992.6,-31.5"/>
</g>
<!-- ADDCOUNTS -->
<g id="node21" class="node">
<title>ADDCOUNTS</title>
<polygon fill="lightyellow" stroke="black" points="834.38,-216.5 697.62,-216.5 697.62,-180.5 834.38,-180.5 834.38,-216.5"/>
<text text-anchor="middle" x="766" y="-193.07" font-family="Arial" font-size="14.00">Add Sample Counts</text>
</g>
<!-- MASTER&#45;&gt;ADDCOUNTS -->
<g id="edge20" class="edge">
<title>MASTER&#45;&gt;ADDCOUNTS</title>
<path fill="none" stroke="black" d="M766,-252.33C766,-252.33 766,-228.43 766,-228.43"/>
<polygon fill="black" stroke="black" points="769.5,-228.43 766,-218.43 762.5,-228.43 769.5,-228.43"/>
</g>
<!-- RUNOUTRIDER -->
<g id="node22" class="node">
<title>RUNOUTRIDER</title>
<polygon fill="lightyellow" stroke="black" points="835.88,-144.5 720.12,-144.5 720.12,-108.5 835.88,-108.5 835.88,-144.5"/>
<text text-anchor="middle" x="778" y="-121.08" font-family="Arial" font-size="14.00">Run OUTRIDER</text>
</g>
<!-- ADDCOUNTS&#45;&gt;RUNOUTRIDER -->
<g id="edge21" class="edge">
<title>ADDCOUNTS&#45;&gt;RUNOUTRIDER</title>
<path fill="none" stroke="black" d="M777.25,-180.33C777.25,-180.33 777.25,-156.43 777.25,-156.43"/>
<polygon fill="black" stroke="black" points="780.75,-156.43 777.25,-146.43 773.75,-156.43 780.75,-156.43"/>
</g>
<!-- RUNOUTRIDER&#45;&gt;UPLOAD -->
<g id="edge28" class="edge">
<title>RUNOUTRIDER&#45;&gt;UPLOAD</title>
<path fill="none" stroke="black" d="M836.3,-127C904.75,-127 1009.04,-127 1009.04,-127 1009.04,-127 1009.04,-63.89 1009.04,-63.89"/>
<polygon fill="black" stroke="black" points="1012.54,-63.89 1009.04,-53.89 1005.54,-63.89 1012.54,-63.89"/>
</g>
</g>
</svg>
